<svg width="512" height="512" xmlns="http://www.w3.org/2000/svg" xmlns:svg="http://www.w3.org/2000/svg" xmlns:se="http://svg-edit.googlecode.com" class="svg-inline--fa fa-upload fa-w-16" data-icon="upload" data-prefix="fas">
 <g class="layer">
  <title>Layer 1</title>
  <path d="m310,380l-80,0c-13.3,0 -24,-10.7 -24,-24l0,-168l-87.7,0c-17.8,0 -26.7,-21.5 -14.1,-34.1l152.1,-152.2c7.5,-7.5 19.8,-7.5 27.3,0l152.2,152.2c12.6,12.6 3.7,34.1 -14.1,34.1l-87.7,0l0,168c0,13.3 -10.7,24 -24,24zm216,-8l0,112c0,13.3 -10.7,24 -24,24l-464,0c-13.3,0 -24,-10.7 -24,-24l0,-112c0,-13.3 10.7,-24 24,-24l136,0l0,8c0,30.9 25.1,56 56,56l80,0c30.9,0 56,-25.1 56,-56l0,-8l136,0c13.3,0 24,10.7 24,24z" fill="#FFF" id="svg_1"/>
 </g>
</svg>